HIERARCHY
ROOT Hips
{
	OFFSET -0.001795 -0.223333 0.028219
	CHANNELS 6 Xposition Yposition Zposition Zrotation Yrotation Xrotation 
	JOINT LeftUpLeg
	{
		OFFSET 0.069520 -0.091406 -0.006815
		CHANNELS 3 Zrotation Yrotation Xrotation
		JOINT LeftLeg
		{
			OFFSET 0.034277 -0.375199 -0.004496
			CHANNELS 3 Zrotation Yrotation Xrotation
			JOINT LeftFoot
			{
				OFFSET -0.013596 -0.397961 -0.043693
				CHANNELS 3 Zrotation Yrotation Xrotation
				JOINT LeftToe
				{
					OFFSET 0.026358 -0.055791 0.119288
					CHANNELS 3 Zrotation Yrotation Xrotation
					End Site
					{
						OFFSET 0.000000 0.000000 0.000000
					}
				}
			}
		}
	}
	JOINT RightUpLeg
	{
		OFFSET -0.067670 -0.090522 -0.004320
		CHANNELS 3 Zrotation Yrotation Xrotation
		JOINT RightLeg
		{
			OFFSET -0.038290 -0.382569 -0.008850
			CHANNELS 3 Zrotation Yrotation Xrotation
			JOINT RightFoot
			{
				OFFSET 0.015774 -0.398415 -0.042312
				CHANNELS 3 Zrotation Yrotation Xrotation
				JOINT RightToe
				{
					OFFSET -0.025372 -0.048144 0.123348
					CHANNELS 3 Zrotation Yrotation Xrotation
					End Site
					{
						OFFSET 0.000000 0.000000 0.000000
					}
				}
			}
		}
	}
	JOINT Spine
	{
		OFFSET -0.002533 0.108963 -0.026696
		CHANNELS 3 Zrotation Yrotation Xrotation
		JOINT Spine1
		{
			OFFSET 0.005487 0.135180 0.001092
			CHANNELS 3 Zrotation Yrotation Xrotation
			JOINT Spine2
			{
				OFFSET 0.001457 0.052922 0.025425
				CHANNELS 3 Zrotation Yrotation Xrotation
				JOINT Neck
				{
					OFFSET -0.002778 0.213870 -0.042857
					CHANNELS 3 Zrotation Yrotation Xrotation
					JOINT Head
					{
						OFFSET 0.005152 0.064970 0.051349
						CHANNELS 3 Zrotation Yrotation Xrotation
						End Site
						{
							OFFSET 0.000000 0.000000 0.000000
						}
					}
				}
				JOINT LeftShoulder
				{
					OFFSET 0.078845 0.121749 -0.034090
					CHANNELS 3 Zrotation Yrotation Xrotation
					JOINT LeftArm
					{
						OFFSET 0.090977 0.030469 -0.008868
						CHANNELS 3 Zrotation Yrotation Xrotation
						JOINT LeftForeArm
						{
							OFFSET 0.259612 -0.012772 -0.027456
							CHANNELS 3 Zrotation Yrotation Xrotation
							JOINT LeftHand
							{
								OFFSET 0.249234 0.008986 -0.001171
								CHANNELS 3 Zrotation Yrotation Xrotation
								End Site
								{
									OFFSET 0.000000 0.000000 0.000000
								}
							}
						}
					}
				}
				JOINT RightShoulder
				{
					OFFSET -0.081759 0.118833 -0.038615
					CHANNELS 3 Zrotation Yrotation Xrotation
					JOINT RightArm
					{
						OFFSET -0.096012 0.032551 -0.009143
						CHANNELS 3 Zrotation Yrotation Xrotation
						JOINT RightForeArm
						{
							OFFSET -0.253742 -0.013329 -0.021401
							CHANNELS 3 Zrotation Yrotation Xrotation
							JOINT RightHand
							{
								OFFSET -0.255298 0.007772 -0.005559
								CHANNELS 3 Zrotation Yrotation Xrotation
								End Site
								{
									OFFSET 0.000000 0.000000 0.000000
								}
							}
						}
					}
				}
			}
		}
	}
}
MOTION
Frames: 10
Frame Time: 0.050000
0.285138 0.900750 -0.859184 11.499991 17.985336 10.117890 7.294962 -0.705062 -6.645196 -11.623614 1.184982 21.425289 7.501591 17.638114 13.158910 0.000000 0.000000 0.000000 -11.122864 -1.627384 -30.137036 -0.592520 -0.813914 35.711457 -4.593874 -11.159910 -3.118123 0.000000 0.000000 0.000000 9.300187 -3.882370 21.056546 -4.793843 2.180488 -2.753474 -0.463426 -1.392270 5.459999 0.861736 1.917392 -22.549769 0.000000 0.000000 0.000000 -20.940120 -9.805769 1.280420 -15.960307 -11.005390 -0.485175 20.730319 -25.504970 -4.056526 0.000000 0.000000 0.000000 6.200322 2.686175 1.204360 5.787389 8.361497 -0.825114 -26.018295 10.682184 -1.095669 0.000000 0.000000 0.000000 
0.278701 0.911286 -0.853886 11.690741 22.704802 10.265913 6.164403 -0.697196 -6.257308 -11.189434 0.710008 20.706298 0.893575 9.518647 15.666704 0.000000 0.000000 0.000000 -10.841027 -1.697494 -26.441151 0.171569 -1.497403 31.723037 -6.049831 -14.902535 -0.820476 0.000000 0.000000 0.000000 9.034005 -3.820967 20.058854 -5.687934 2.529114 -2.635168 0.334287 -1.208652 5.040968 -0.609491 2.753361 -19.847680 0.000000 0.000000 0.000000 -22.718977 -11.265690 1.047499 -13.911561 -9.258086 -0.415143 21.214769 -23.016866 -3.837558 0.000000 0.000000 0.000000 5.194780 1.027359 0.626292 6.869151 6.747038 -0.917414 -25.532991 11.167673 -0.988366 0.000000 0.000000 0.000000 
0.274093 0.918279 -0.850860 11.268563 26.419876 10.467279 5.776426 -0.659574 -5.138799 -11.418906 0.561350 17.737470 1.444833 10.930459 16.557829 0.000000 0.000000 0.000000 -9.974860 -1.599160 -24.476050 0.736063 -1.937552 29.266075 -7.422998 -17.783963 1.661384 0.000000 0.000000 0.000000 9.161653 -3.792136 19.051608 -5.605501 2.465783 -2.450717 -0.030334 -0.976380 4.170284 -0.138997 2.498405 -17.300319 0.000000 0.000000 0.000000 -23.297232 -10.807570 -0.110316 -13.021029 -8.164553 -0.321814 20.946603 -23.890170 -4.016710 0.000000 0.000000 0.000000 5.237140 -0.282667 0.182524 6.895876 6.467233 -0.945123 -25.720831 13.218057 -1.226355 0.000000 0.000000 0.000000 
0.270393 0.920426 -0.850028 11.736555 30.662785 10.946840 4.582111 -0.612870 -5.108148 -9.996368 0.169022 15.506999 5.085064 16.013651 17.113425 0.000000 0.000000 0.000000 -9.756931 -1.845530 -23.495062 0.793721 -2.430992 28.836299 -9.030102 -20.844156 3.473722 0.000000 0.000000 0.000000 9.301808 -3.811802 18.255672 -5.815615 2.483361 -1.909729 -0.796949 -0.677352 3.318711 0.055407 2.407703 -15.205161 0.000000 0.000000 0.000000 -23.197786 -10.868798 -1.017749 -12.417778 -7.467359 -0.203061 19.981727 -24.608448 -4.026380 0.000000 0.000000 0.000000 5.449117 -0.851525 0.100444 7.609863 5.395289 -1.030038 -26.637450 14.435492 -1.317591 0.000000 0.000000 0.000000 
0.266162 0.919929 -0.851323 12.454390 35.032509 11.205380 3.736991 -0.590892 -5.381668 -8.167056 -0.239812 14.971854 5.809118 16.750445 15.856543 0.000000 0.000000 0.000000 -9.838272 -2.237964 -22.880975 0.915591 -3.182146 29.597661 -10.683984 -23.718683 5.093977 0.000000 0.000000 0.000000 9.167987 -3.972723 18.423182 -5.752993 2.413333 -1.885449 -1.552409 -0.049530 3.129934 0.271930 2.343108 -13.609548 0.000000 0.000000 0.000000 -24.322980 -11.478289 -2.056342 -11.492082 -7.070615 -0.052911 19.640703 -26.258173 -4.304964 0.000000 0.000000 0.000000 6.356610 -1.696182 0.000544 8.300885 5.376554 -1.149780 -27.434070 16.101853 -1.470927 0.000000 0.000000 0.000000 
0.260147 0.921654 -0.854846 13.353215 39.021921 12.125856 3.003350 -0.570045 -5.606587 -6.367292 -0.429524 12.812309 5.357375 16.335338 15.651799 0.000000 0.000000 0.000000 -10.711413 -2.909843 -22.554260 2.288906 -4.297679 29.326386 -12.292481 -25.905204 7.291235 0.000000 0.000000 0.000000 8.936054 -3.861798 17.685057 -6.511267 2.463094 0.030231 -1.851237 0.119369 2.268513 0.122217 2.487298 -12.996255 0.000000 0.000000 0.000000 -24.123747 -10.727157 -3.118745 -11.671851 -6.172341 -0.018791 19.135189 -28.810581 -4.703680 0.000000 0.000000 0.000000 7.594807 -1.412323 0.426664 8.372514 6.210953 -1.174115 -27.022767 17.654299 -1.651469 0.000000 0.000000 0.000000 
0.251960 0.922508 -0.860276 14.033484 43.784760 13.916692 3.620978 -0.787649 -7.676960 -5.794553 -0.677751 13.171078 3.414988 12.796133 11.852335 0.000000 0.000000 0.000000 -10.135642 -3.287265 -22.914224 2.262867 -4.678976 28.317318 -14.699497 -29.092633 9.869770 0.000000 0.000000 0.000000 9.439258 -3.986459 16.873320 -7.216680 2.570989 -0.016706 -1.883459 0.730840 2.733454 -0.378824 2.987487 -12.681928 0.000000 0.000000 0.000000 -27.283208 -9.922516 -5.736628 -8.542779 -4.635301 -0.000563 19.901385 -33.814220 -5.649514 0.000000 0.000000 0.000000 6.942907 -0.581721 1.011015 10.008343 5.304790 -1.367926 -28.827065 19.886950 -1.952720 0.000000 0.000000 0.000000 
0.242888 0.924884 -0.866905 15.223314 47.969943 14.973320 5.199866 -0.905918 -7.216825 -8.492806 -0.563924 11.908023 2.903191 9.928573 7.789701 0.000000 0.000000 0.000000 -10.111506 -3.774595 -22.869282 2.164118 -5.183777 28.271731 -16.917090 -31.013154 13.364148 0.000000 0.000000 0.000000 8.761691 -3.878431 16.706591 -7.459230 2.401569 1.032398 -2.793769 3.738483 2.825333 1.089645 2.822107 -14.461581 0.000000 0.000000 0.000000 -26.818656 -12.056439 -6.618795 -8.099319 -3.374861 0.148500 23.879100 -36.189478 -7.680518 0.000000 0.000000 0.000000 8.084532 -2.434072 0.793680 9.919041 5.368506 -1.486874 -30.859496 22.545858 -2.257076 0.000000 0.000000 0.000000 
0.233651 0.924986 -0.874478 17.023014 53.497501 16.169822 7.752915 -1.262201 -7.077644 -12.072876 -0.797511 11.815115 4.496822 13.970282 12.303962 0.000000 0.000000 0.000000 -10.575988 -4.143179 -20.460876 3.281221 -5.737436 25.482422 -20.047877 -34.907227 15.709354 0.000000 0.000000 0.000000 7.100602 -4.099616 18.473942 -6.826451 2.103599 0.206113 -3.865198 5.724352 2.762690 3.824941 1.684299 -14.530566 0.000000 0.000000 0.000000 -25.659719 -12.009428 -8.353033 -7.008666 -3.264990 0.232456 26.737480 -39.033503 -9.661764 0.000000 0.000000 0.000000 11.134324 -2.738801 2.109971 9.534354 3.960611 -1.664383 -36.052417 24.599380 -3.020092 0.000000 0.000000 0.000000 
0.225326 0.925147 -0.883163 17.578269 58.455405 16.874688 9.460626 -1.650217 -7.914498 -13.413585 -1.165489 12.451776 15.663603 26.035396 32.030963 0.000000 0.000000 0.000000 -10.719617 -4.227349 -17.947532 5.457765 -6.113605 21.210333 -23.292770 -38.695784 18.212308 0.000000 0.000000 0.000000 5.851886 -3.753056 18.011501 -7.370519 1.922298 0.997322 -3.171833 7.329844 3.561826 5.980448 0.566957 -13.779656 0.000000 0.000000 0.000000 -24.017955 -12.734358 -8.818514 -6.237769 -3.579378 0.262580 30.155096 -40.864837 -11.873866 0.000000 0.000000 0.000000 12.671574 -1.387640 4.110764 11.291332 5.329590 -2.015593 -44.139672 24.726515 -3.601543 0.000000 0.000000 0.000000 
